<svg id="twitter" xmlns="http://www.w3.org/2000/svg" width="98.424" height="80.197" viewBox="0 0 98.424 80.197">
  <path id="Path" d="M97.858,9.79a2.153,2.153,0,0,0-2.568-.45,18.379,18.379,0,0,1-2.734.98,19.032,19.032,0,0,0,3.252-6.207A2.12,2.12,0,0,0,94.29,1.519a2.154,2.154,0,0,0-1.777.312,45.206,45.206,0,0,1-10.3,3.992A21.676,21.676,0,0,0,55.236,3.758,20.986,20.986,0,0,0,45.992,23.21,50.792,50.792,0,0,1,10.508,4.262a2.221,2.221,0,0,0-1.819-.793A2.142,2.142,0,0,0,6.977,4.5,20.382,20.382,0,0,0,4.615,20.444a22.617,22.617,0,0,0,3.719,7.709A11.374,11.374,0,0,1,6.16,26.774a2.152,2.152,0,0,0-3.01.311,2.11,2.11,0,0,0-.478,1.335,21.913,21.913,0,0,0,11.4,18.837,15.986,15.986,0,0,1-2.756-.585,2.143,2.143,0,0,0-2.665,1.42,2.106,2.106,0,0,0,.1,1.482,23.308,23.308,0,0,0,16.21,13.152A37.973,37.973,0,0,1,2.386,67.333a2.12,2.12,0,0,0-1.3,3.954A64.541,64.541,0,0,0,32.714,80.2a54.647,54.647,0,0,0,30.015-9.1C79.688,59.938,90.258,39.9,88.786,21.98a39.78,39.78,0,0,0,9.3-9.614A2.108,2.108,0,0,0,97.858,9.79Z" transform="translate(0 0)" fill="#fff"/>
</svg>
