<svg xmlns="http://www.w3.org/2000/svg" width="67.854" height="80.381" viewBox="0 0 67.854 80.381">
  <g id="youtube" transform="translate(-0.021)">
    <path id="Shape" d="M35.536,47.294H32.309a214.752,214.752,0,0,1-23.794-.941,8.579,8.579,0,0,1-7.332-6.667C0,34.548,0,29.007,0,23.648c0-5.08,0-10.838,1.2-16.041A8.578,8.578,0,0,1,8.527.941,214.778,214.778,0,0,1,32.323,0H35.55A214.716,214.716,0,0,1,59.345.941,8.581,8.581,0,0,1,66.68,7.607c1.169,5.085,1.172,10.57,1.174,15.875v.166c0,5.094,0,10.868-1.189,16.039a8.58,8.58,0,0,1-7.332,6.667A214.777,214.777,0,0,1,35.536,47.294ZM56.692,14.783A5.858,5.858,0,0,0,51.781,17.1c-.852,1.118-1.267,2.862-1.267,5.33V30.36a8.779,8.779,0,0,0,1.316,5.323A5.849,5.849,0,0,0,56.792,38a5.675,5.675,0,0,0,4.961-2.453,5.863,5.863,0,0,0,.957-2.456c.042-.464.087-1.4.087-2.643v-.6H58.614a26.206,26.206,0,0,1-.092,2.777,1.765,1.765,0,0,1-1.832,1.645c-1.409,0-2.094-1.028-2.094-3.141V27.119h8.2V22.434c0-2.453-.415-4.2-1.269-5.33A5.7,5.7,0,0,0,56.692,14.783ZM39.395,35.5l0,.006c1.363,1.68,2.747,2.5,4.231,2.5a3.25,3.25,0,0,0,3.276-2.543,18.176,18.176,0,0,0,.416-4.56V21.883a17.238,17.238,0,0,0-.416-4.55A3.247,3.247,0,0,0,43.63,14.78c-1.488,0-2.913.826-4.236,2.456V7.316h-4.1V37.687h4.1V35.5ZM19.95,15.057v17.9a11.6,11.6,0,0,0,.364,3.363A2.514,2.514,0,0,0,22.955,38c1.521,0,3.054-.909,4.687-2.78v2.468h4.1V15.057h-4.1v17.3c-.914,1.292-1.761,1.92-2.59,1.92-.547,0-.861-.313-.96-.957a12.6,12.6,0,0,1-.037-1.6V15.057ZM5.061,7.316v4.276H9.88v26.1h4.563v-26.1h4.912V7.316Z" transform="translate(0.021 33.087)" fill="#fff"/>
    <path id="Path" d="M2.057,0Q0,0,0,3.139V5.233H4.1V3.139C4.1,1.047,3.414,0,2.057,0Z" transform="translate(54.619 51.559)" fill="#fff"/>
    <path id="Path-2" data-name="Path" d="M2.045,0A2.938,2.938,0,0,0,0,1V14.79A2.925,2.925,0,0,0,2.045,15.8c1.183,0,1.784-1.011,1.784-3.054V3.088C3.829,1.047,3.228,0,2.045,0Z" transform="translate(39.414 51.559)" fill="#fff"/>
    <path id="Path-3" data-name="Path" d="M3.037,23.184c1.511,0,3.084-.918,4.734-2.808V22.87h4.144V0H7.771V17.479c-.918,1.3-1.789,1.94-2.618,1.94-.555,0-.881-.328-.972-.971a9.611,9.611,0,0,1-.051-1.611V0H0V18.084a11.554,11.554,0,0,0,.367,3.4A2.545,2.545,0,0,0,3.037,23.184Z" transform="translate(40.713 7.819)" fill="#fff"/>
    <path id="Path-4" data-name="Path" d="M5.757,18.259V30.688h4.6V18.259L15.88,0H11.233L8.1,12.051,4.836,0H0C.969,2.845,1.977,5.7,2.946,8.551A75.6,75.6,0,0,1,5.757,18.259Z" transform="translate(9.143)" fill="#fff"/>
    <path id="Shape-2" data-name="Shape" d="M6.121,23.461A5.665,5.665,0,0,1,1.3,21.12C.424,19.985,0,18.226,0,15.742V7.734C0,5.253.424,3.49,1.3,2.346A5.658,5.658,0,0,1,6.121,0a5.661,5.661,0,0,1,4.834,2.346c.866,1.148,1.286,2.911,1.286,5.388v8.008c0,2.446-.433,4.255-1.286,5.378A5.669,5.669,0,0,1,6.121,23.461Zm0-19.728c-1.33,0-1.977,1.037-1.977,3.169v9.621c0,2.136.647,3.174,1.977,3.174S8.1,18.658,8.1,16.522V6.9C8.1,4.769,7.451,3.732,6.121,3.732Z" transform="translate(25.06 7.542)" fill="#fff"/>
  </g>
</svg>
